<svg xmlns="http://www.w3.org/2000/svg" width="2177" height="700" viewBox="0 0 2177 700" version="1.1"><path d="" stroke="none" fill="#080404" fill-rule="evenodd"/><path d="M 1559.994 0.877 C 1552.096 3.459, 1545.935 7.985, 1541.517 14.450 C 1534.463 24.772, 1535 -2.880, 1535 350 C 1535 702.880, 1534.463 675.228, 1541.517 685.550 C 1545.235 690.991, 1548.040 693.392, 1555.031 697.118 C 1558.882 699.171, 1560.883 699.500, 1569.500 699.500 C 1578.993 699.500, 1579.821 699.326, 1585.825 696.071 C 1592.935 692.216, 1596.813 688.050, 1600.786 680 L 1603.500 674.500 1603.500 350 L 1603.500 25.500 1600.786 20 C 1596.801 11.925, 1592.921 7.770, 1585.825 3.981 C 1580.278 1.018, 1578.454 0.569, 1571 0.330 C 1566.325 0.181, 1561.372 0.427, 1559.994 0.877 M 174.813 225.999 C 80.197 232.151, 16.069 278.510, 6.230 347.869 C 3.510 367.044, 6.537 389.260, 14.415 407.938 C 23.851 430.313, 42.772 450.108, 67.500 463.475 C 93.964 477.781, 125.207 486.003, 195 497.027 C 271.703 509.143, 300.765 517.716, 316.328 532.816 C 325.309 541.529, 328.976 550.572, 328.976 564 C 328.976 577.964, 324.528 588.540, 314.121 599.320 C 299.269 614.704, 275.965 624.642, 243 629.650 C 228.989 631.778, 193.531 632.052, 178.500 630.148 C 135.166 624.658, 93.239 609.716, 56.768 586.765 C 45.987 579.980, 41.336 578.603, 31.254 579.208 C 21.540 579.790, 15.102 582.868, 8.696 589.993 C 2.827 596.521, 0 603.955, -0 612.859 C -0 630.175, 6.823 637.868, 37.321 654.939 C 80.610 679.170, 129.083 694.238, 179.190 699.040 C 196.062 700.657, 239.684 699.781, 254 697.538 C 296.912 690.813, 328.757 677.678, 354.308 656.164 C 384.958 630.357, 401.202 591.177, 397.194 552.727 C 391.928 502.211, 361.287 468.480, 303.375 449.447 C 281.504 442.259, 257.688 437.359, 201.500 428.487 C 146.325 419.775, 119.989 413.192, 100.765 403.305 C 82.335 393.827, 74.042 381.001, 74.012 361.932 C 73.960 329.119, 106.098 305.285, 162.500 296.307 C 176.205 294.125, 214.629 293.866, 229 295.858 C 270.051 301.548, 300.241 313.315, 329.589 335.066 C 342.312 344.495, 347.677 346.486, 358.421 345.767 C 370.716 344.944, 380.085 338.864, 386.070 327.826 C 389.255 321.952, 389.500 320.856, 389.500 312.485 C 389.500 304.288, 389.197 302.854, 386.163 296.685 C 382.246 288.722, 376.231 283.290, 357.640 270.924 C 314.661 242.339, 263.728 227.326, 204 225.640 C 194.925 225.384, 181.791 225.546, 174.813 225.999 M 685 226.001 C 583.021 234.090, 497.531 305.497, 472.497 403.500 C 466.520 426.900, 465.497 435.708, 465.528 463.500 C 465.560 491.414, 466.982 502.653, 473.476 526.333 C 495.303 605.924, 558.760 669.283, 639.297 691.897 C 661.413 698.107, 672.758 699.479, 702 699.478 C 725.337 699.477, 729.932 699.206, 740.500 697.211 C 793.943 687.120, 840.146 660.607, 873.129 621.104 C 891.565 599.024, 896.384 588.673, 894.074 576.111 C 893.428 572.598, 892.043 568.045, 890.997 565.995 C 884.611 553.477, 871.174 546.041, 857.282 547.338 C 845.085 548.477, 838.959 552.754, 827.792 567.923 C 772.248 643.376, 664.319 653.348, 591.024 589.800 C 544.952 549.853, 524.182 486.234, 537.590 426.129 C 555.257 346.939, 627.533 291.056, 708 294.372 C 732.077 295.364, 749.963 299.920, 771.500 310.548 C 793.696 321.502, 814.910 339.519, 828.579 359.026 C 838.604 373.332, 846.968 378.424, 860.521 378.472 C 867.599 378.497, 869.327 378.114, 875.218 375.213 C 887.479 369.177, 894.311 358.188, 894.311 344.500 C 894.311 334.860, 891.697 328.793, 881.813 315.500 C 872.326 302.740, 851.069 281.056, 839.456 272.293 C 800.219 242.687, 757.414 227.383, 709 225.651 C 701.575 225.385, 690.775 225.543, 685 226.001 M 1187 225.618 C 1142.534 228.546, 1103.358 241.615, 1067.500 265.483 C 1015.921 299.817, 978.884 354.724, 966.645 415 C 963.147 432.227, 962 444.145, 962 463.249 C 962 517.089, 979.091 566.424, 1012.838 610 C 1021.288 620.911, 1041.089 640.712, 1052 649.162 C 1093.120 681.008, 1139.616 698.222, 1188.500 699.699 C 1204.400 700.179, 1205.885 700.067, 1211.449 697.960 C 1221.289 694.234, 1230.026 684.469, 1232.440 674.500 C 1233.796 668.904, 1233.133 659.430, 1230.984 653.688 C 1228.219 646.298, 1221.645 639.130, 1214.359 635.562 C 1209.288 633.079, 1206.828 632.599, 1195.513 631.885 C 1179.152 630.852, 1174.776 630.304, 1163.092 627.821 C 1142.329 623.410, 1119.337 613.186, 1101.012 600.216 C 1088.905 591.646, 1070.436 573.195, 1061.746 560.988 C 1053.702 549.688, 1043.222 529.092, 1038.987 516.259 C 1022.822 467.274, 1029.676 414.233, 1057.759 371 C 1090.239 320.999, 1146.535 291.765, 1205.500 294.281 C 1254.018 296.351, 1297.580 320.077, 1326.089 359.958 C 1337.389 375.767, 1347.543 399.092, 1351.418 418.140 C 1354.607 433.818, 1354.983 448.819, 1354.991 560.712 L 1355 672.925 1357.163 678.705 C 1360.117 686.600, 1368.400 694.883, 1376.295 697.837 C 1393.061 704.111, 1411.595 697.043, 1419.541 681.345 L 1422.500 675.500 1422.805 557 C 1423.013 476.211, 1422.761 434.999, 1422.013 427.500 C 1416.827 375.489, 1394.277 328.101, 1357.051 290.986 C 1315.960 250.019, 1263.772 227.526, 1205.500 225.670 C 1198.350 225.442, 1190.025 225.419, 1187 225.618 M 1936 226.001 C 1889.838 229.663, 1847.543 245.685, 1810.500 273.543 C 1761.704 310.239, 1729.191 364.181, 1718.909 425.500 C 1716.268 441.251, 1715.345 468.818, 1716.933 484.500 C 1723.733 551.655, 1757.365 612.307, 1809.600 651.615 C 1841.679 675.754, 1876.365 690.736, 1916 697.572 C 1928.760 699.773, 1965.586 700.622, 1980.317 699.055 C 2042.093 692.482, 2096.611 666.190, 2138.657 622.692 C 2154.333 606.474, 2156.506 602.368, 2156.485 589 C 2156.472 580.575, 2156.157 578.902, 2153.701 574.216 C 2150.005 567.163, 2144.027 561.368, 2137.148 558.170 C 2132.447 555.983, 2130.075 555.543, 2123 555.543 C 2110.059 555.543, 2106.717 557.488, 2088.500 575.619 C 2070.858 593.178, 2059.866 601.302, 2040.656 610.980 C 1988.166 637.426, 1928.964 638.738, 1879.500 614.551 C 1832.358 591.501, 1798.978 548.470, 1787.828 496.378 C 1785.781 486.811, 1785.501 482.789, 1785.505 463 C 1785.511 437.820, 1786.479 430.867, 1792.672 411.500 C 1804.156 375.587, 1828.098 343.778, 1859.410 322.833 C 1889.572 302.659, 1925.195 292.613, 1960.408 294.353 C 1983.754 295.506, 2000.888 299.975, 2022.500 310.549 C 2055.170 326.534, 2082.370 355.346, 2096.561 389 C 2099.620 396.255, 2106 416.640, 2106 419.160 C 2106 419.608, 2057.287 420.092, 1997.750 420.237 L 1889.500 420.500 1884.924 422.755 C 1877.488 426.419, 1872.372 431.498, 1868.792 438.771 C 1865.850 444.747, 1865.500 446.364, 1865.500 453.979 C 1865.500 461.106, 1865.933 463.424, 1868.148 468.148 C 1871.520 475.340, 1877.660 481.480, 1884.852 484.852 L 1890.500 487.500 2021.500 487.500 L 2152.500 487.500 2157.500 485.039 C 2164.879 481.406, 2172.259 473.596, 2174.846 466.681 C 2178.808 456.094, 2177.505 426.045, 2171.977 400.500 C 2166.992 377.466, 2154.439 347.627, 2141.265 327.500 C 2109.249 278.585, 2058.778 243.428, 2002.600 230.910 C 1982.091 226.340, 1955.985 224.416, 1936 226.001" stroke="none" fill="#040404" fill-rule="evenodd"/></svg>