<?xml version="1.0" encoding="UTF-8"?>
<svg xmlns="http://www.w3.org/2000/svg" width="1399" height="399" viewBox="0 0 1399 399" fill="none">
  <mask id="mask0_302_22" style="mask-type:luminance" maskUnits="userSpaceOnUse" x="0" y="0" width="1399" height="399">
    <path d="M1398.14 0.239258H0.429199V398.944H1398.14V0.239258Z" fill="white"></path>
  </mask>
  <g mask="url(#mask0_302_22)">
    <path d="M903.96 302.584C894.09 312.779 879.19 320.563 858.47 320.563C837.75 320.563 823.167 312.779 813.301 302.584C798.94 287.675 795.323 268.491 795.323 242.729C795.323 217.296 798.94 198.222 813.301 183.203C823.167 173.008 837.86 165.225 858.47 165.225C879.08 165.225 894.09 173.008 903.96 183.203C918.32 198.112 921.94 217.296 921.94 242.729C921.83 268.381 918.32 287.566 903.96 302.584ZM880.94 203.374C875.24 198.002 867.46 195.152 858.47 195.152C849.48 195.152 842.02 198.002 836.32 203.374C827 212.144 825.91 227.162 825.91 242.729C825.91 258.296 827.11 273.314 836.32 282.084C842.02 287.456 849.48 290.635 858.47 290.635C867.46 290.635 875.24 287.566 880.94 282.084C890.26 273.314 891.35 258.296 891.35 242.729C891.35 227.272 890.15 212.144 880.94 203.374Z" fill="#14194D"></path>
    <path d="M548.011 288.443C575.855 288.004 589.887 278.138 590.326 258.625C590.545 242.619 581.227 233.082 562.371 229.793C553.711 228.588 544.283 227.272 533.979 225.847C515.562 222.777 501.53 215.981 491.992 205.457C482.126 194.604 477.193 181.339 477.193 165.773C477.193 147.027 483.442 132.008 495.829 120.498C507.888 109.097 524.99 103.396 547.134 103.177C573.772 103.725 596.903 111.18 616.636 125.321L598.548 152.07C582.433 141.546 564.783 135.955 545.489 135.626C535.513 135.626 527.182 138.147 520.495 143.08C513.589 148.233 509.971 156.016 509.752 166.321C509.752 172.46 512.163 178.051 516.987 183.093C521.81 188.136 529.484 191.754 540.008 193.617C545.928 194.604 553.93 195.7 564.125 197.016C584.187 199.756 598.986 206.991 608.633 218.612C618.17 230.013 622.884 243.387 622.884 258.515C621.788 299.515 596.684 320.234 547.682 320.782C516 320.782 488.704 311.025 465.902 291.402L487.169 267.066C504.161 281.098 524.441 288.223 548.011 288.443Z" fill="#14194D"></path>
    <path d="M647.33 166.652H678.025V182.767H678.573C688.659 170.708 701.923 164.678 718.257 164.678C730.864 164.678 742.484 169.173 752.899 178.053C763.313 187.042 768.685 200.306 769.233 217.737V319.14H738.538V228.37C738.538 217.737 735.688 209.515 729.987 204.034C724.396 198.333 717.161 195.483 708.391 195.483C699.621 195.483 692.386 198.333 686.685 204.034C680.875 209.625 678.025 217.737 678.025 228.37V319.14H647.33V166.652Z" fill="#14194D"></path>
    <path d="M949.13 166.652H979.82V182.767H980.37C990.46 170.708 1003.72 164.678 1020.05 164.678C1032.33 164.898 1042.97 168.844 1052.06 176.408L1029.81 203.047C1023.34 198.004 1016.66 195.373 1009.64 195.373C1001.86 195.373 995.06 197.895 989.58 203.047C983.33 208.09 980.04 216.092 979.93 227.274V319.14H949.24V276.824L949.13 166.652Z" fill="#14194D"></path>
    <path d="M1063.35 104.929H1094.15V238.233H1094.7L1153.35 166.648H1190.08L1137.46 226.174L1197.2 319.136H1158.72L1118.16 247.88L1094.15 275.176V319.136H1063.35V104.929Z" fill="#14194D"></path>
    <path d="M1369.75 106.794V248.867C1369.75 290.196 1347.72 292.169 1319.55 292.169H1319.66H1269.01C1258.27 292.169 1249.72 288.88 1243.14 282.412C1236.12 276.054 1232.61 266.736 1232.61 254.458H1327.66V229.354C1327.44 209.293 1321.19 193.507 1309.02 181.996C1296.96 170.705 1282.27 165.005 1264.84 164.785C1257.61 164.785 1250.26 166.101 1242.81 168.732C1235.25 171.363 1228.45 175.748 1222.42 181.667C1216.39 187.587 1211.57 195.59 1207.73 205.785C1203.89 215.761 1202.03 228.368 1202.03 243.386C1202.03 259.062 1204.22 271.779 1208.61 281.535C1212.66 291.731 1217.82 299.624 1224.28 305.324C1227.57 308.065 1231.19 310.367 1235.03 312.23C1238.64 314.423 1242.37 316.067 1246.21 317.383C1253.88 319.685 1261.67 320.891 1269.67 320.891H1319.66H1335.66C1380.06 320.891 1398.26 289.757 1398.26 260.378V88.1582L1369.75 106.794ZM1242.15 202.387C1248.07 196.576 1255.53 193.726 1264.73 193.726C1273.94 193.726 1281.51 196.576 1287.32 202.387C1293.35 208.416 1296.53 217.405 1296.85 229.245H1232.61C1233.16 217.405 1236.34 208.526 1242.15 202.387Z" fill="#14194D"></path>
    <path d="M275.624 266.841C281.143 266.032 286.519 264.517 291.684 262.32C297.822 259.714 303.537 256.197 308.662 251.872C308.819 251.747 308.968 251.613 309.118 251.48L312.76 248.16C312.979 247.964 313.191 247.752 313.403 247.54C319.643 241.182 324.518 233.772 327.885 225.523C331.253 217.258 332.956 208.569 332.956 199.676L333.011 27.8992C333.011 16.7852 327.461 7.81325 317.775 3.27625C312.132 0.647245 306.41 0.270258 302.045 0.239258H301.3C296.394 0.239258 290.609 0.592231 284.879 3.26123C275.161 7.79723 269.596 16.7692 269.596 27.8912L269.573 95.5032C247.814 75.1192 218.89 63.1812 188.167 62.9222C121.715 62.3642 67.1942 115.981 66.6442 182.432C66.5342 195.249 68.4732 208.569 71.8882 219.432C69.5412 220.437 66.9662 221.12 64.3292 221.096H64.1322C59.7682 221.002 55.5452 219.04 51.2052 215.092C43.4572 208.035 40.8042 197.792 38.6692 189.559L37.8142 186.262C36.2592 180.25 31.3622 175.689 25.2552 174.559C24.3362 174.386 23.4102 174.3 22.4922 174.292C17.3352 174.253 12.3982 176.71 9.34418 181.011C0.718179 193.146 -1.65282 210.374 2.82118 228.278C5.59218 239.4 10.8202 250.044 17.9392 259.047C25.7572 268.905 35.4982 276.252 46.1262 280.31C47.5862 280.867 49.0702 281.369 50.5612 281.801C49.6982 281.832 48.8262 281.848 47.9312 281.84C40.0352 281.777 32.5782 280.074 26.5812 278.701C24.2262 278.159 22.1232 277.68 20.4592 277.343C19.4382 277.139 18.4182 277.029 17.4052 277.021C12.2012 276.974 7.22519 279.486 4.17919 283.857C0.804186 288.692 0.396179 294.956 3.01018 300.16C7.80618 310.482 17.9232 319.257 32.3432 325.575C44.9572 331.093 60.1922 334.351 75.2632 334.751C76.0012 334.767 76.7542 334.782 77.5002 334.79C93.1982 334.924 108.144 331.98 120.71 326.282C125.129 324.28 129.25 321.933 133.042 319.28C133.968 323.911 135.349 328.55 137.202 333.15C142.633 346.642 151.958 359.727 164.156 370.99C175.326 381.272 188.536 389.6 201.378 394.435C209.698 397.583 217.602 399.208 224.855 399.27C230.334 399.317 235.405 398.454 239.941 396.719C245.271 394.906 249.314 390.37 250.444 384.734C251.731 378.298 248.945 371.736 243.427 368.188C242.069 367.317 240.303 366.226 238.073 364.86C232.249 361.304 224.981 356.862 218.788 350.433C219.973 351.046 221.134 351.587 222.265 352.074C229.855 355.355 238.152 357.058 246.927 357.129C250.318 357.16 253.78 356.94 257.226 356.469C268.513 354.962 279.604 350.928 289.282 344.79C304.816 334.939 314.871 320.78 316.888 305.945C317.72 299.815 314.934 293.755 309.745 290.396C307.147 288.716 304.18 287.861 301.205 287.837C298.231 287.813 295.256 288.614 292.634 290.247L289.785 292.021C282.846 296.353 274.243 301.722 264.267 301.636C264.039 301.636 263.811 301.628 263.584 301.62C257.775 301.424 253.379 299.87 250.153 296.856C247.956 294.815 246.425 292.193 245.357 289.532C256.582 283.897 266.849 276.205 275.624 266.841Z" fill="#14194D"></path>
    <path fill-rule="evenodd" clip-rule="evenodd" d="M298.502 305.504C290.465 310.52 278.463 318.016 263.33 317.514C252.984 317.168 245.213 313.762 239.538 308.471C233.047 302.428 229.452 294.021 227.937 285.018C227.27 281.376 227.45 279.948 229.656 279.037C267.521 265.003 291.65 226.668 292.003 184.26C292.482 126.514 246.069 79.3173 188.322 78.8313C130.574 78.3523 83.3763 124.764 82.8903 182.509C82.7723 196.583 85.5273 212.297 90.4013 222.328C92.3953 225.907 90.4483 226.645 88.6673 228.003C81.3903 233.56 72.9923 237.194 64.0593 237.006C56.3673 236.841 48.4313 233.85 40.7313 226.841C29.4753 216.582 25.8963 202.752 23.4943 193.498L22.6383 190.201C16.3983 198.992 15.4323 211.716 18.5883 224.345C20.7703 233.097 24.9623 241.778 30.7393 249.085C36.4453 256.283 43.6983 262.13 52.0973 265.341C63.3533 269.642 76.9083 269.218 91.8463 260.984C93.0393 260.262 94.5143 260.058 95.9273 260.561C98.4393 261.455 99.7813 264.265 98.9023 266.824C96.7673 273.119 93.1333 278.982 87.6703 283.951C82.8273 288.362 76.5323 292.043 68.5253 294.681C50.8493 300.497 34.2713 296.713 23.3133 294.21C21.0133 293.684 19.0203 293.228 17.5523 292.93L17.6073 293.017C20.7233 300.104 28.6193 306.336 39.0353 310.897C49.6163 315.528 62.6543 318.385 75.9743 318.73C89.2473 319.083 102.764 316.956 114.412 311.674C126.32 306.281 136.288 297.506 141.869 284.626L141.948 284.414C142.96 281.879 145.778 280.654 148.267 281.667L148.274 281.675L148.29 281.682V281.698C150.708 282.687 151.932 285.474 151.022 287.977C146.139 301.305 147.325 314.743 152.301 327.121C157.121 339.099 165.457 350.126 175.276 359.184C185.143 368.274 196.485 375.346 207.301 379.427C217.937 383.446 227.882 384.498 234.978 381.546L235.072 381.531C233.816 380.722 232.066 379.647 230.041 378.407C220.402 372.52 205.857 363.627 197.05 347.026C193.07 339.515 191.014 332.435 190.519 325.849C189.946 318.416 191.328 311.642 194.067 305.583V305.591C194.609 304.366 195.653 303.377 197.011 302.946C199.562 302.129 202.27 303.558 203.094 306.14C208.251 322.663 217.788 332.545 228.887 337.348C237.137 340.912 246.352 341.791 255.378 340.574C264.531 339.358 273.471 336.022 281.014 331.234C291.893 324.327 299.892 314.46 301.352 303.723L298.502 305.504Z" fill="#84CEFF"></path>
    <path d="M314.729 185.075C314.046 197.43 310.232 205.899 306.409 211.48C305.726 212.492 305.02 213.418 304.352 214.25C303.685 215.082 303.026 215.828 302.406 216.503C302.108 216.841 301.801 217.139 301.519 217.429H301.495C297.421 221.534 293.191 224.548 289.031 226.723C288.293 227.131 287.547 227.484 286.793 227.837C285.114 228.599 283.458 229.242 281.841 229.745C281.817 229.768 281.817 229.768 281.817 229.768C276.487 231.495 271.464 232.068 267.162 232.052C267.162 232.052 266.613 238.245 263.881 242.821C261.291 247.169 256.903 251 256.903 251L268.457 251.094C268.457 251.094 267.241 252.774 265.357 254.846C263.222 257.256 261.401 258.81 261.401 258.81L214.486 258.527C199.117 258.519 186.424 245.568 186.416 229.901V227.869C178.661 230.043 156.204 229.109 156.204 229.109C143.088 229.117 131.189 223.685 122.578 214.894L122.554 214.87C113.944 206.095 108.614 193.968 108.606 180.609C108.622 167.25 113.936 155.115 122.57 146.348V146.324H122.594C131.204 137.557 143.096 132.141 156.22 132.133L221.283 132.141L266.95 132.188C271.33 132.188 275.569 132.777 279.58 133.923C281.723 134.519 283.811 135.249 285.836 136.144V135.948C285.836 135.948 285.836 135.948 285.859 135.972C286.417 136.215 293.057 139.213 299.855 145.861C307.72 153.561 315.781 166.167 314.729 185.075Z" fill="#14194D"></path>
    <path fill-rule="evenodd" clip-rule="evenodd" d="M211.736 181.213C211.752 179.164 212.741 176.778 214.013 175.396L214.021 175.381C215.52 173.764 217.521 172.971 219.539 172.971H219.672H219.711H219.751H219.9C221.917 173.01 223.879 173.85 225.339 175.483C226.595 176.888 227.545 179.227 227.529 181.346C227.419 194.682 231.595 202.107 238.353 209.108C245.104 216.094 254.484 220.474 264.884 220.56C275.3 220.646 284.743 216.424 291.619 209.548C298.479 202.664 302.781 193.088 302.867 182.484C302.953 171.872 298.832 162.241 292.082 155.248C285.316 148.223 275.928 143.843 265.528 143.757L174.366 142.995C163.989 142.909 154.515 147.132 147.655 154.023L147.631 154.039C140.771 160.915 136.493 170.475 136.406 181.087C136.32 191.691 140.449 201.33 147.191 208.331C153.942 215.317 163.338 219.697 173.738 219.783C184.138 219.869 193.597 215.647 200.473 208.771C207.325 201.903 211.627 194.548 211.736 181.213Z" fill="white"></path>
    <path fill-rule="evenodd" clip-rule="evenodd" d="M280.687 170.285C286.511 170.332 291.197 175.207 291.15 181.172C291.103 187.137 286.331 191.933 280.506 191.886C274.69 191.839 269.996 186.965 270.043 180.999L280.593 181.086L280.687 170.285Z" fill="#14194D"></path>
    <path fill-rule="evenodd" clip-rule="evenodd" d="M193.93 169.565C199.754 169.612 204.448 174.487 204.401 180.452C204.354 186.417 199.582 191.213 193.75 191.166C187.941 191.119 183.247 186.244 183.294 180.279L193.836 180.366L193.93 169.565Z" fill="#14194D"></path>
    <path fill-rule="evenodd" clip-rule="evenodd" d="M226.378 215.444C236.096 215.522 243.906 222.579 243.835 231.189C243.764 239.807 235.837 246.722 226.119 246.644C216.409 246.565 208.592 239.509 208.67 230.899C208.741 222.288 216.669 215.365 226.378 215.444Z" fill="white"></path>
    <path d="M317.283 199.624C317.283 206.61 315.878 213.313 313.398 219.443C310.8 225.809 306.985 231.531 302.307 236.311L298.657 239.623C294.787 242.896 290.423 245.588 285.729 247.574C281.624 249.332 276.443 251.161 272.558 251.13L256.914 250.996C257.377 250.659 257.833 250.29 258.256 249.89C258.696 249.513 259.12 249.12 259.497 248.728C259.897 248.336 260.258 247.935 260.603 247.543C260.964 247.15 261.31 246.734 261.608 246.318V246.295C261.906 245.918 262.189 245.565 262.417 245.188C262.519 245.07 262.597 244.953 262.66 244.835C262.903 244.497 263.123 244.144 263.304 243.807C264.034 242.637 264.599 241.452 265.085 240.275C265.329 239.702 265.556 239.105 265.737 238.524C265.98 237.826 266.184 237.151 266.349 236.499C266.757 234.866 267.008 233.359 267.165 232.049C276.624 232.064 289.646 229.349 301.514 217.426C306.114 212.787 313.735 203.038 314.724 185.064C316.718 149.343 286.145 136.094 285.831 135.952L285.862 27.8313C285.87 22.4553 288.186 19.4334 291.899 17.6904C294.717 16.3794 298.045 16.1524 301.585 16.1604C305.172 16.1524 308.469 16.3794 311.31 17.6984C315.015 19.4414 317.346 22.4704 317.338 27.8634L317.283 199.624Z" fill="#84CEFF"></path>
    <path fill-rule="evenodd" clip-rule="evenodd" d="M140.811 214.974L140.788 214.966C132.255 206.23 127.044 194.229 127.153 181.042C127.263 167.864 132.679 155.941 141.353 147.346L141.376 147.323C142.138 146.577 142.907 145.855 143.723 145.156C138.072 146.993 133.009 150.133 128.888 154.214C122.004 161.019 117.719 170.478 117.632 180.956C117.546 191.427 121.682 200.956 128.425 207.863C132.475 212.007 137.467 215.217 143.072 217.148C142.295 216.442 141.533 215.72 140.811 214.974Z" fill="white"></path>
  </g>
</svg>
